<svg width="512" height="373" viewBox="0 0 512 373" fill="none" xmlns="http://www.w3.org/2000/svg">
<g clip-path="url(#clip0_122_2676)">
<path d="M275.274 0C282.751 1.42041 290.285 2.65617 297.72 4.26123C346.909 15.0422 385.685 41.4476 414.486 82.6679C416.362 85.2555 418.957 87.2319 421.949 88.3496C444.352 96.0766 465.932 105.395 484.291 120.763C489.952 125.478 495.08 130.798 499.586 136.629C514.965 156.671 516.029 179.526 502.863 201.13C489.966 222.252 470.543 235.973 448.481 248.657C449.899 241.939 451.318 236.371 452.354 230.732C453.421 225.512 454.132 220.225 454.482 214.908C454.823 206.528 456.766 199.525 462.456 192.523C474.317 177.935 472.685 161.572 459.164 148.376C453.375 142.695 446.395 138.234 439.996 133.235L438.946 134.399C440.507 142.666 442.437 150.876 443.572 159.2C451.006 214.07 437.116 263.174 401.675 305.502C367.624 346.168 323.386 368 270.45 372.063C269.442 372.267 268.465 372.602 267.542 373.057H246.53C241.365 372.247 236.201 371.48 231.051 370.614C173.987 361.04 129.607 332.163 98.5919 283.116C96.7538 279.98 93.799 277.656 90.3204 276.611C70.8545 270.247 52.1548 262.137 35.3563 250.191C22.1048 240.774 10.7403 229.652 4.39827 214.297C2.68153 210.136 1.44717 205.775 0 201.514V188.233C2.05725 182.21 3.6179 175.961 6.27104 170.208C13.365 154.74 25.2261 143.135 38.5486 133.007C65.7894 112.34 96.8752 99.6134 129.238 89.7132C163.62 79.3717 199.015 72.7712 234.81 70.0263C248.544 68.9184 262.69 67.1855 276.126 69.2735C333.686 77.8954 375.867 132.34 371.369 190.42C371.085 194.099 369.865 195.619 366.105 195.718C358.004 195.932 349.917 196.457 341.83 196.926C308.933 198.877 276.064 200.846 243.224 202.835C238.854 203.105 234.498 203.474 229.532 203.829C228.795 190.96 228.114 178.745 227.347 166.032L333.118 159.64C333.006 158.598 332.831 157.564 332.594 156.544C320.818 119.201 279.587 95.2812 241.152 103.491C199.88 112.298 173.689 147.638 176.753 189.923C179.463 227.209 213.5 262.464 252.517 261.356C283.051 260.414 313.387 256.079 342.965 248.43C355.734 245.163 368.631 242.18 381.471 239.055C381.482 239.949 381.357 240.84 381.102 241.697C374.874 254.935 367.723 267.662 357.167 277.932C353.929 281.087 349.858 283.25 345.434 284.167C324.052 287.846 302.629 291.71 281.063 293.798C265.783 295.218 249.85 296.255 234.881 293.585C156.564 279.651 117.263 193.346 157.089 124.442C157.926 123.022 158.678 121.502 159.785 119.442C158.727 119.399 157.668 119.457 156.621 119.613C138.815 125.451 120.697 130.522 103.302 137.411C86.2768 144.115 70.3579 153.135 57.4895 166.586C50.3955 173.944 45.1744 182.21 45.1034 192.92C45.0041 207.721 58.9225 224.965 76.5864 231.271C76.2459 229.212 75.8912 227.507 75.6642 225.774C74.3448 215.377 72.3727 204.994 71.8761 194.525C70.6985 169.697 72.1598 167.793 95.3855 157.893C102.011 155.052 108.722 152.495 116.284 149.441C115.887 151.728 115.759 152.609 115.575 153.461C110.255 176.702 110.661 200.89 116.758 223.939C122.855 246.989 134.46 268.207 150.572 285.767C166.684 303.326 186.82 316.698 209.244 324.732C231.669 332.765 255.708 335.218 279.289 331.879C362.104 320.061 418.175 241.356 402.583 158.774C383.344 56.8022 266.293 6.57651 179.194 62.7964C174.538 65.6038 169.487 67.6961 164.211 69.0036C143.866 74.6852 123.421 79.9976 103.004 85.4378L102.536 84.9548C103.137 83.6325 103.824 82.3514 104.593 81.1197C133.026 40.941 171.225 15.3736 219.189 4.41748C226.425 2.78401 233.732 1.46302 240.996 0H275.274Z" fill="#FF781F"/>
</g>
<defs>
<clipPath id="clip0_122_2676">
<rect width="512" height="373" fill="white"/>
</clipPath>
</defs>
</svg>
